<svg width="17" height="17" fill="none" xmlns="http://www.w3.org/2000/svg"><path fill-rule="evenodd" clip-rule="evenodd" d="M.6 16.105h15.8c.336 0 .6-.27.6-.615V1.756a.601.601 0 00-.6-.615h-2.973V.615a.601.601 0 00-.6-.615.6.6 0 00-.6.615v.526H4.875V.615a.601.601 0 00-.6-.615.6.6 0 00-.6.615v.526H.6c-.336 0-.6.27-.6.615v13.749c0 .33.278.6.6.6zm.6-13.733h2.475v.33c0 .345.264.615.6.615.337 0 .601-.27.601-.615v-.33h7.35v.33a.601.601 0 101.201 0v-.33h2.387v1.59H1.201v-1.59zm14.6 2.821H1.2v9.697h14.6V5.193z" fill="#000"/><path d="M12.82 8.053H4.18c-.337 0-.601.196-.601.447 0 .25.264.447.6.447h8.642c.337 0 .6-.196.6-.447s-.263-.447-.6-.447zm-4.456 2.684H4.163c-.328 0-.584.196-.584.447s.256.448.584.448h4.2c.328 0 .584-.197.584-.448 0-.25-.256-.447-.583-.447z" fill="#000"/></svg>