<svg width="18" height="14" fill="none" xmlns="http://www.w3.org/2000/svg"><mask id="a" maskUnits="userSpaceOnUse" x="0" y="-2" width="20" height="16" fill="#000"><path fill="#fff" d="M0-2h20v16H0z"/><path fill-rule="evenodd" clip-rule="evenodd" d="M17.156.33a1 1 0 00-1.412-.073L6.376 8.69 3.788 5.376a1 1 0 00-1.576 1.231l2.81 3.597a.998.998 0 001.656.907l10.404-9.368a1 1 0 00.074-1.412z"/></mask><path fill-rule="evenodd" clip-rule="evenodd" d="M17.156.33a1 1 0 00-1.412-.073L6.376 8.69 3.788 5.376a1 1 0 00-1.576 1.231l2.81 3.597a.998.998 0 001.656.907l10.404-9.368a1 1 0 00.074-1.412z" fill="#fff"/><path d="M15.743.257L14.405-1.23 15.743.257zm1.413.074L15.67 1.669 17.155.331zM6.378 8.69L4.8 9.92l1.32 1.69 1.595-1.435L6.378 8.69zm-2.59-3.315L2.212 6.607l1.576-1.231zm-1.404-.173l-1.23-1.576 1.23 1.576zm-.172 1.404L.636 7.838l1.576-1.23zm2.81 3.597l1.973.326.144-.866-.54-.691-1.577 1.23zm.244.833l-1.487 1.338 1.487-1.338zm1.412.074L5.34 9.625l1.338 1.486zm10.404-9.368L18.42 3.23l-1.338-1.486zm0 0a1 1 0 01-1.413-.074l2.973-2.676a3 3 0 00-4.237-.222l2.677 2.972zm-9.366 8.433l9.366-8.433-2.677-2.972L5.04 7.204l2.677 2.972zM2.212 6.607l2.59 3.314L7.953 7.46l-2.59-3.315-3.152 2.463zm1.404.172a1 1 0 01-1.404-.172l3.152-2.463a3 3 0 00-4.21-.517L3.615 6.78zm.172-1.403a1 1 0 01-.172 1.403L1.153 3.627a3 3 0 00-.517 4.211l3.152-2.462zm2.81 3.597l-2.81-3.597L.636 7.838l2.81 3.597 3.152-2.462zm.154.726c.212.236.29.547.243.832L3.05 9.877a2.998 2.998 0 00.73 2.498L6.752 9.7zM5.34 9.625a1 1 0 011.412.074l-2.973 2.676a3 3 0 004.237.222L5.34 9.625zM15.743.257L5.34 9.625l2.676 2.972L18.42 3.23 15.743.257zm-.074 1.412a1 1 0 01.074-1.412l2.677 2.972a3 3 0 00.222-4.236L15.67 1.669z" fill="#82C141" mask="url(#a)"/></svg>