<svg width="20" height="16" fill="none" xmlns="http://www.w3.org/2000/svg"><mask id="a" maskUnits="userSpaceOnUse" x="0" y="0" width="20" height="16" fill="#000"><path fill="#fff" d="M0 0h20v16H0z"/><path fill-rule="evenodd" clip-rule="evenodd" d="M17.156 2.33a1 1 0 00-1.412-.073L6.376 10.69 3.788 7.376a1 1 0 00-1.576 1.231l2.81 3.597a.998.998 0 001.656.907l10.404-9.368a1 1 0 00.074-1.412z"/></mask><path fill-rule="evenodd" clip-rule="evenodd" d="M17.156 2.33a1 1 0 00-1.412-.073L6.376 10.69 3.788 7.376a1 1 0 00-1.576 1.231l2.81 3.597a.998.998 0 001.656.907l10.404-9.368a1 1 0 00.074-1.412z" fill="#82C141"/><path d="M15.743 2.257L14.405.77l1.338 1.486zm1.413.074L15.67 3.669l1.486-1.338zM6.378 10.69L4.8 11.92l1.32 1.69 1.595-1.435-1.338-1.486zm-2.59-3.315L2.212 8.607l1.576-1.231zm-1.404-.173l-1.23-1.576 1.23 1.576zm-.172 1.404L.636 9.838l1.576-1.23zm2.81 3.597l1.973.326.144-.866-.54-.691-1.577 1.23zm.244.833l-1.487 1.338 1.487-1.338zm1.412.074L5.34 11.625l1.338 1.486zm10.404-9.368L18.42 5.23l-1.338-1.486zm0 0a1 1 0 01-1.413-.074L18.642.993A3 3 0 0014.405.77l2.677 2.972zm-9.366 8.433l9.366-8.433L14.405.771 5.04 9.204l2.677 2.972zM2.212 8.607l2.59 3.314L7.953 9.46l-2.59-3.315-3.152 2.463zm1.404.172a1 1 0 01-1.404-.172l3.152-2.463a3 3 0 00-4.21-.517L3.615 8.78zm.172-1.403a1 1 0 01-.172 1.403L1.153 5.627a3 3 0 00-.517 4.211l3.152-2.462zm2.81 3.596l-2.81-3.596L.636 9.838l2.81 3.597 3.152-2.463zm.154.727c.212.236.29.547.243.832l-3.946-.654a2.998 2.998 0 00.73 2.498L6.752 11.7zm-1.412-.074a1 1 0 011.412.074l-2.973 2.676a3 3 0 004.237.222L5.34 11.625zm10.403-9.368L5.34 11.625l2.676 2.972L18.42 5.23l-2.677-2.972zm-.074 1.412a1 1 0 01.074-1.412l2.677 2.972a3 3 0 00.222-4.236L15.67 3.669z" fill="#fff" mask="url(#a)"/></svg>