<svg width="34" height="34" fill="none" xmlns="http://www.w3.org/2000/svg"><path d="M12.407 15.502c.799 0 1.445-.635 1.445-1.418 0-.783-.646-1.418-1.445-1.418-.798 0-1.445.635-1.445 1.418 0 .784.647 1.418 1.445 1.418zm9.181 5.758c.798 0 1.445-.635 1.445-1.419 0-.783-.647-1.418-1.445-1.418-.799 0-1.445.635-1.445 1.418 0 .784.646 1.419 1.445 1.419z" fill="#00A5F4"/><path fill-rule="evenodd" clip-rule="evenodd" d="M32.977 18.138l.524.702c.8 1.078.46 2.593-.722 3.233l-.772.424a2.191 2.191 0 00-1.12 2.33l.163.855c.248 1.307-.73 2.53-2.082 2.607l-.885.049a2.228 2.228 0 00-2.04 1.62l-.234.841c-.361 1.28-1.778 1.968-3.032 1.46l-.822-.334a2.28 2.28 0 00-2.557.591l-.58.654c-.886 1.008-2.465 1.015-3.372.028l-.588-.647a2.274 2.274 0 00-2.564-.556l-.815.34c-1.246.53-2.677-.131-3.053-1.41l-.248-.835a2.25 2.25 0 00-2.068-1.592l-.885-.035c-1.353-.056-2.352-1.266-2.125-2.573l.148-.855a2.192 2.192 0 00-1.154-2.315l-.78-.41c-1.196-.633-1.558-2.142-.778-3.227l.51-.709a2.18 2.18 0 00-.022-2.58L.5 15.093c-.8-1.07-.46-2.586.723-3.233l.772-.424a2.191 2.191 0 001.119-2.33l-.163-.854c-.248-1.308.73-2.531 2.082-2.608l.886-.048a2.228 2.228 0 002.04-1.62l.234-.842c.36-1.28 1.778-1.967 3.031-1.46l.822.334a2.28 2.28 0 002.557-.591l.58-.654a2.273 2.273 0 013.372-.028l.588.647c.645.71 1.68.932 2.565.556l.814-.34c1.247-.529 2.678.132 3.053 1.411l.248.834a2.25 2.25 0 002.068 1.593l.886.034c1.353.056 2.351 1.266 2.125 2.573l-.149.855a2.192 2.192 0 001.155 2.316l.779.41c1.197.633 1.558 2.141.779 3.226l-.51.71a2.18 2.18 0 00.021 2.579zM12.4 10.663c-1.927 0-3.485 1.53-3.485 3.421 0 1.884 1.558 3.421 3.485 3.421 1.927 0 3.485-1.53 3.485-3.42 0-1.892-1.558-3.422-3.485-3.422zm.673 12.244a.863.863 0 01-1.197.112.826.826 0 01-.113-1.175l9.144-10.812a.863.863 0 011.197-.111c.361.292.411.82.114 1.175l-9.145 10.811zm5.03-3.066c0 1.891 1.557 3.421 3.484 3.421s3.485-1.53 3.485-3.42c0-1.892-1.558-3.422-3.485-3.422-1.927 0-3.485 1.53-3.485 3.421z" fill="#00A5F4"/></svg>