<svg width="19" height="17" fill="none" xmlns="http://www.w3.org/2000/svg"><path fill-rule="evenodd" clip-rule="evenodd" d="M13.739.033c1.405 0 2.721.551 3.715 1.56a5.32 5.32 0 011.534 3.777 5.345 5.345 0 01-1.542 3.776L9.87 16.808a.538.538 0 01-.382.16.543.543 0 01-.382-.164l-7.56-7.675A5.34 5.34 0 010 5.358a5.325 5.325 0 011.538-3.776 5.2 5.2 0 017.435.008l.527.535.52-.527A5.186 5.186 0 0113.738.033zM9.488 15.639l7.193-7.274a4.219 4.219 0 001.22-2.995c0-1.132-.43-2.195-1.22-2.996a4.123 4.123 0 00-5.897.004l-.902.916a.536.536 0 01-.768 0l-.91-.924a4.122 4.122 0 00-5.897-.004 4.22 4.22 0 00-1.22 2.992A4.24 4.24 0 002.31 8.353l7.177 7.286z" fill="#000"/></svg>