<svg width="18" height="19" fill="none" xmlns="http://www.w3.org/2000/svg"><path fill-rule="evenodd" clip-rule="evenodd" d="M14.83 3.93h.392C16.753 3.93 18 5.15 18 6.65v5.616c0 1.5-1.246 2.72-2.777 2.72h-.392v3.536c0 .25-.207.454-.463.454H3.647a.458.458 0 01-.462-.454v-3.535h-.393c-1.53 0-2.776-1.22-2.776-2.72V6.65c0-1.5 1.246-2.72 2.776-2.72h.393V.452c0-.25.207-.453.463-.453h10.72c.255 0 .462.203.462.453V3.93zM13.905.906H4.11v3.022h9.795V.907zm0 17.162H4.11v-5.592h9.795v5.592zm1.317-3.99c1.021 0 1.851-.813 1.851-1.813V6.65c0-1-.83-1.814-1.85-1.814H2.791c-1.02 0-1.85.814-1.85 1.814v5.616c0 1 .83 1.814 1.85 1.814h.393v-1.603H2.32a.458.458 0 01-.463-.453.46.46 0 01.463-.454h13.511c.256 0 .463.203.463.454 0 .25-.207.453-.463.453h-1v1.603h.391z" fill="#000"/><path d="M14.367 6.644a.626.626 0 00-.631.619c0 .341.283.619.631.619a.625.625 0 00.632-.62.625.625 0 00-.632-.618zM5.19 14.045h7.635a.458.458 0 00.463-.453.458.458 0 00-.463-.454H5.19a.458.458 0 00-.462.454c0 .25.207.453.462.453zm0 1.682h7.635a.458.458 0 00.463-.454.458.458 0 00-.463-.453H5.19a.458.458 0 00-.462.453c0 .25.207.454.462.454z" fill="#000"/></svg>