<svg width="16" height="17" fill="none" xmlns="http://www.w3.org/2000/svg"><path fill-rule="evenodd" clip-rule="evenodd" d="M10.559 12.108a3.036 3.036 0 012.403-1.187A3.04 3.04 0 0112.966 17a3.041 3.041 0 01-3.035-3.04c0-.352.064-.695.177-1.012l-4.66-2.609a3.033 3.033 0 01-2.41 1.197A3.042 3.042 0 010 8.496a3.041 3.041 0 013.034-3.039c.98 0 1.854.466 2.407 1.193l4.656-2.605A3.04 3.04 0 0112.959 0a3.04 3.04 0 010 6.078c-.98 0-1.854-.469-2.407-1.193L5.892 7.49a3.054 3.054 0 01.005 2.01l4.663 2.609zm4.486-9.065A2.086 2.086 0 0012.962.957a2.086 2.086 0 000 4.172 2.086 2.086 0 002.083-2.086zm-12.007 7.54a2.086 2.086 0 010-4.173 2.086 2.086 0 010 4.173zm7.841 3.374c0 1.151.934 2.086 2.083 2.086a2.086 2.086 0 000-4.172 2.086 2.086 0 00-2.083 2.086z" fill="#000"/></svg>