<svg width="14" height="15" fill="none" xmlns="http://www.w3.org/2000/svg"><path fill-rule="evenodd" clip-rule="evenodd" d="M12.466 12.896h-.59c-.169-2.401-1.35-4.444-3.007-5.355 1.686-.91 2.923-2.98 3.091-5.437h.45c.309 0 .59-.248.59-.552A.559.559 0 0012.438 1H1.562A.559.559 0 001 1.552c0 .304.253.552.562.552h.506c.14 2.429 1.349 4.471 3.007 5.382-1.686.911-2.895 2.954-3.063 5.41h-.45a.559.559 0 00-.562.552c0 .304.253.552.562.552H12.41c.309 0 .59-.248.59-.552a.535.535 0 00-.534-.552zM3.22 2.104h7.672c-.197 2.705-1.826 4.83-3.822 4.83-2.023 0-3.681-2.125-3.85-4.83zm3.766 5.99c-1.995 0-3.625 2.097-3.85 4.802h7.672c-.197-2.705-1.827-4.803-3.822-4.803z" fill="#000"/><mask id="a" maskUnits="userSpaceOnUse" x="0" y="0" width="14" height="15" fill="#000"><path fill="#fff" d="M0 0h14v15H0z"/><path fill-rule="evenodd" clip-rule="evenodd" d="M12.466 12.896h-.59c-.169-2.401-1.35-4.444-3.007-5.355 1.686-.91 2.923-2.98 3.091-5.437h.45c.309 0 .59-.248.59-.552A.559.559 0 0012.438 1H1.562A.559.559 0 001 1.552c0 .304.253.552.562.552h.506c.14 2.429 1.349 4.471 3.007 5.382-1.686.911-2.895 2.954-3.063 5.41h-.45a.559.559 0 00-.562.552c0 .304.253.552.562.552H12.41c.309 0 .59-.248.59-.552a.535.535 0 00-.534-.552zM3.22 2.104h7.672c-.197 2.705-1.826 4.83-3.822 4.83-2.023 0-3.681-2.125-3.85-4.83zm3.766 5.99c-1.995 0-3.625 2.097-3.85 4.802h7.672c-.197-2.705-1.827-4.803-3.822-4.803z"/></mask><path fill-rule="evenodd" clip-rule="evenodd" d="M12.466 12.896h-.59c-.169-2.401-1.35-4.444-3.007-5.355 1.686-.91 2.923-2.98 3.091-5.437h.45c.309 0 .59-.248.59-.552A.559.559 0 0012.438 1H1.562A.559.559 0 001 1.552c0 .304.253.552.562.552h.506c.14 2.429 1.349 4.471 3.007 5.382-1.686.911-2.895 2.954-3.063 5.41h-.45a.559.559 0 00-.562.552c0 .304.253.552.562.552H12.41c.309 0 .59-.248.59-.552a.535.535 0 00-.534-.552zM3.22 2.104h7.672c-.197 2.705-1.826 4.83-3.822 4.83-2.023 0-3.681-2.125-3.85-4.83zm3.766 5.99c-1.995 0-3.625 2.097-3.85 4.802h7.672c-.197-2.705-1.827-4.803-3.822-4.803z" fill="#000"/><path d="M11.876 12.896l-.998.07.066.93h.932v-1zM8.869 7.541l-.475-.88-1.616.873 1.61.884.48-.877zm3.091-5.437v-1h-.934l-.063.932.997.068zm-9.892 0l.998-.058-.054-.942h-.944v1zm3.007 5.382l.475.88 1.615-.872-1.609-.884-.481.876zm-3.063 5.41v1h.933l.064-.932-.997-.068zm8.88-10.792l.998.073.078-1.073h-1.076v1zm-7.672 0v-1H2.156l.066 1.062.998-.062zm-.084 10.792l-.997-.083-.09 1.083h1.087v-1zm7.672 0v1h1.075l-.078-1.073-.997.073zm1.068 1h.59v-2h-.59v2zM8.387 8.418c1.292.71 2.34 2.4 2.491 4.548l1.995-.14c-.186-2.654-1.498-5.049-3.523-6.161l-.963 1.753zm2.575-6.382c-.15 2.192-1.247 3.912-2.568 4.626l.95 1.76c2.05-1.108 3.427-3.529 3.614-6.25l-1.995-.136zm1.448-.932h-.45v2h.45v-2zm-.41.448a.47.47 0 01.144-.347.387.387 0 01.266-.101v2c.78 0 1.59-.618 1.59-1.552h-2zm.438.448A.441.441 0 0112 1.552h2C14 .679 13.282 0 12.438 0v2zM1.562 2h10.876V0H1.562v2zM2 1.552A.441.441 0 011.562 2V0A1.56 1.56 0 000 1.552h2zm-.438-.448c.226 0 .438.182.438.448H0c0 .873.718 1.552 1.562 1.552v-2zm.506 0h-.506v2h.506v-2zM5.556 6.61c-1.296-.713-2.365-2.404-2.49-4.564l-1.996.116c.156 2.698 1.504 5.091 3.523 6.2l.963-1.752zM3.01 12.964c.151-2.196 1.223-3.886 2.541-4.598l-.95-1.76c-2.054 1.11-3.4 3.505-3.586 6.222l1.995.136zm-1.447.932h.45v-2h-.45v2zM2 13.448a.441.441 0 01-.438.448v-2A1.56 1.56 0 000 13.448h2zM1.562 13c.226 0 .438.182.438.448H0C0 14.321.718 15 1.562 15v-2zm10.848 0H1.562v2H12.41v-2zm-.41.448a.47.47 0 01.144-.347.387.387 0 01.266-.101v2c.78 0 1.59-.618 1.59-1.552h-2zm.466.448a.48.48 0 01-.343-.15.437.437 0 01-.123-.298h2c0-.805-.623-1.552-1.534-1.552v2zM10.892 1.104H3.22v2h7.672v-2zM7.07 7.934c1.379 0 2.552-.737 3.373-1.784.82-1.045 1.336-2.45 1.447-3.973L9.895 2.03c-.086 1.181-.483 2.192-1.026 2.886-.543.692-1.182 1.017-1.799 1.017v2zM2.222 2.166c.096 1.532.614 2.94 1.444 3.988.83 1.05 2.018 1.78 3.404 1.78v-2c-.637 0-1.29-.332-1.836-1.021-.548-.691-.943-1.698-1.016-2.871l-1.996.124zm1.91 10.813c.099-1.184.502-2.19 1.048-2.877.544-.685 1.184-1.009 1.806-1.009v-2c-1.374 0-2.546.726-3.372 1.765-.824 1.038-1.348 2.434-1.475 3.955l1.993.166zm6.676-1.083H3.136v2h7.672v-2zM6.986 9.093c.622 0 1.26.324 1.8 1.007.542.686.939 1.688 1.025 2.869l1.994-.146c-.11-1.524-.627-2.923-1.449-3.963-.823-1.041-1.997-1.767-3.37-1.767v2z" fill="#FBFBFB" mask="url(#a)"/></svg>