<svg width="14" height="7" viewBox="0 0 14 7" fill="none" xmlns="http://www.w3.org/2000/svg">
<path fill-rule="evenodd" clip-rule="evenodd" d="M12.9912 0.183156C12.7591 -0.0489262 12.3828 -0.0489264 12.1508 0.183156L7.00011 5.3338L1.84947 0.183156C1.61738 -0.0489262 1.2411 -0.0489262 1.00902 0.183156C0.776941 0.415238 0.77694 0.791517 1.00902 1.0236L6.2091 6.22367C6.14755 6.42674 6.19704 6.65626 6.35757 6.81679C6.53128 6.9905 6.78577 7.03419 7.00011 6.94787C7.21446 7.03419 7.46895 6.9905 7.64266 6.81679C7.80319 6.65626 7.85268 6.42674 7.79113 6.22367L12.9912 1.0236C13.2233 0.791517 13.2233 0.415238 12.9912 0.183156Z" fill="black"/>
</svg>
