<svg width="8" height="13" viewBox="0 0 8 13" fill="none" xmlns="http://www.w3.org/2000/svg">
<path opacity="0.296365" fill-rule="evenodd" clip-rule="evenodd" d="M0.707231 12.5018C0.940245 12.7348 1.31804 12.7348 1.55105 12.5018L6.76612 7.28674C6.96475 7.33916 7.18514 7.28751 7.34087 7.13178C7.51169 6.96096 7.55728 6.71234 7.47765 6.49998C7.55728 6.28763 7.51169 6.039 7.34087 5.86818C7.18514 5.71245 6.96475 5.6608 6.76612 5.71322L1.55105 0.49815C1.31804 0.265136 0.940245 0.265136 0.707231 0.49815C0.474217 0.731164 0.474217 1.10895 0.707231 1.34197L5.86524 6.49998L0.707231 11.658C0.474217 11.891 0.474217 12.2688 0.707231 12.5018Z" fill="black"/>
</svg>
