<svg width="14" height="7" viewBox="0 0 14 7" fill="none" xmlns="http://www.w3.org/2000/svg">
<path fill-rule="evenodd" clip-rule="evenodd" d="M12.9911 0.183339C12.759 -0.048743 12.3827 -0.0487433 12.1506 0.183339L6.99999 5.33399L1.84934 0.183339C1.61726 -0.0487431 1.24098 -0.0487431 1.0089 0.183339C0.776818 0.415421 0.776818 0.7917 1.0089 1.02378L6.20897 6.22386C6.14743 6.42693 6.19692 6.65644 6.35745 6.81697C6.53116 6.99068 6.78565 7.03437 6.99999 6.94805C7.21434 7.03437 7.46883 6.99068 7.64254 6.81697C7.80306 6.65644 7.85256 6.42693 7.79101 6.22386L12.9911 1.02378C13.2232 0.7917 13.2232 0.415421 12.9911 0.183339Z" fill="#303030"/>
</svg>
