<svg width="14" height="7" viewBox="0 0 14 7" fill="none" xmlns="http://www.w3.org/2000/svg">
<path fill-rule="evenodd" clip-rule="evenodd" d="M12.9911 0.183183C12.759 -0.0488993 12.3827 -0.0488996 12.1506 0.183182L7 5.33383L1.84935 0.183183C1.61727 -0.0488993 1.24099 -0.0488993 1.00891 0.183183C0.776826 0.415265 0.776825 0.791544 1.00891 1.02363L6.20898 6.2237C6.14744 6.42677 6.19693 6.65629 6.35746 6.81682C6.53117 6.99053 6.78566 7.03422 7 6.94789C7.21434 7.03422 7.46883 6.99053 7.64254 6.81682C7.80307 6.65629 7.85256 6.42677 7.79102 6.2237L12.9911 1.02363C13.2232 0.791544 13.2232 0.415265 12.9911 0.183183Z" fill="#F5A623"/>
</svg>
