<svg width="5" height="9" viewBox="0 0 5 9" fill="none" xmlns="http://www.w3.org/2000/svg">
<path fill-rule="evenodd" clip-rule="evenodd" d="M0.288893 0.839256C0.134171 0.993978 0.134171 1.24483 0.288892 1.39955L3.72266 4.83332L0.288893 8.26708C0.134171 8.4218 0.134171 8.67266 0.288893 8.82738C0.443614 8.9821 0.694467 8.9821 0.849188 8.82738L4.3159 5.36066C4.45128 5.40169 4.6043 5.3687 4.71132 5.26168C4.82712 5.14587 4.85625 4.97621 4.7987 4.83332C4.85625 4.69042 4.82712 4.52076 4.71132 4.40496C4.6043 4.29794 4.45128 4.26494 4.3159 4.30597L0.849188 0.839256C0.694467 0.684535 0.443614 0.684535 0.288893 0.839256Z" fill="#F5A623"/>
</svg>
