<svg width="18" height="14" viewBox="0 0 18 14" fill="none" xmlns="http://www.w3.org/2000/svg">
<mask id="path-1-outside-1_258_441" maskUnits="userSpaceOnUse" x="0" y="-2" width="20" height="16" fill="black">
<rect fill="white" y="-2" width="20" height="16"/>
<path fill-rule="evenodd" clip-rule="evenodd" d="M17.1558 0.330878C16.7863 -0.0795496 16.154 -0.112687 15.7435 0.256864L6.3775 8.69009L3.78806 5.37574C3.44803 4.94054 2.81959 4.86337 2.38438 5.20339C1.94918 5.54342 1.87201 6.17186 2.21203 6.60707L5.02215 10.2038C4.97417 10.4936 5.0537 10.8017 5.2655 11.037C5.63505 11.4474 6.26735 11.4805 6.67778 11.111L17.0818 1.74315C17.4922 1.3736 17.5254 0.741305 17.1558 0.330878Z"/>
</mask>
<path fill-rule="evenodd" clip-rule="evenodd" d="M17.1558 0.330878C16.7863 -0.0795496 16.154 -0.112687 15.7435 0.256864L6.3775 8.69009L3.78806 5.37574C3.44803 4.94054 2.81959 4.86337 2.38438 5.20339C1.94918 5.54342 1.87201 6.17186 2.21203 6.60707L5.02215 10.2038C4.97417 10.4936 5.0537 10.8017 5.2655 11.037C5.63505 11.4474 6.26735 11.4805 6.67778 11.111L17.0818 1.74315C17.4922 1.3736 17.5254 0.741305 17.1558 0.330878Z" fill="white"/>
<path d="M15.7435 0.256864L14.4053 -1.22943L14.4053 -1.22943L15.7435 0.256864ZM17.1558 0.330878L15.6695 1.66914V1.66914L17.1558 0.330878ZM6.3775 8.69009L4.80148 9.92141L6.12191 11.6115L7.71576 10.1764L6.3775 8.69009ZM3.78806 5.37574L2.21203 6.60707H2.21203L3.78806 5.37574ZM2.38438 5.20339L1.15306 3.62737L1.15306 3.62737L2.38438 5.20339ZM2.21203 6.60707L0.636012 7.83839L2.21203 6.60707ZM5.02215 10.2038L6.99528 10.5305L7.1387 9.66437L6.59817 8.97253L5.02215 10.2038ZM5.2655 11.037L3.77921 12.3752L3.77921 12.3752L5.2655 11.037ZM6.67778 11.111L5.33952 9.62469H5.33952L6.67778 11.111ZM17.0818 1.74315L18.4201 3.22944L18.4201 3.22944L17.0818 1.74315ZM17.0818 1.74315C16.6714 2.1127 16.0391 2.07957 15.6695 1.66914L18.6421 -1.00738C17.5335 -2.23867 15.6366 -2.33808 14.4053 -1.22943L17.0818 1.74315ZM7.71576 10.1764L17.0818 1.74315L14.4053 -1.22943L5.03924 7.2038L7.71576 10.1764ZM2.21203 6.60707L4.80148 9.92141L7.95353 7.45876L5.36408 4.14442L2.21203 6.60707ZM3.61571 6.77942C3.1805 7.11944 2.55205 7.04227 2.21203 6.60707L5.36408 4.14442C4.34402 2.8388 2.45868 2.60731 1.15306 3.62737L3.61571 6.77942ZM3.78806 5.37574C4.12808 5.81095 4.05091 6.4394 3.61571 6.77942L1.15306 3.62737C-0.152559 4.64743 -0.384049 6.53277 0.636012 7.83839L3.78806 5.37574ZM6.59817 8.97253L3.78806 5.37574L0.636012 7.83839L3.44613 11.4352L6.59817 8.97253ZM6.7518 9.69871C6.96422 9.93463 7.0424 10.246 6.99528 10.5305L3.04901 9.87715C2.90594 10.7412 3.14317 11.6688 3.77921 12.3752L6.7518 9.69871ZM5.33952 9.62469C5.74994 9.25514 6.38224 9.28828 6.75179 9.69871L3.77921 12.3752C4.88787 13.6065 6.78476 13.7059 8.01604 12.5973L5.33952 9.62469ZM15.7435 0.256864L5.33952 9.62469L8.01604 12.5973L18.4201 3.22944L15.7435 0.256864ZM15.6695 1.66914C15.3 1.25871 15.3331 0.626415 15.7435 0.256864L18.4201 3.22944C19.6514 2.12079 19.7508 0.223899 18.6421 -1.00738L15.6695 1.66914Z" fill="#82C141" mask="url(#path-1-outside-1_258_441)"/>
</svg>
