<svg width="20" height="16" viewBox="0 0 20 16" fill="none" xmlns="http://www.w3.org/2000/svg">
<mask id="path-1-outside-1_221_196" maskUnits="userSpaceOnUse" x="0" y="0" width="20" height="16" fill="black">
<rect fill="white" width="20" height="16"/>
<path fill-rule="evenodd" clip-rule="evenodd" d="M17.1558 2.33088C16.7863 1.92045 16.154 1.88731 15.7435 2.25686L6.3775 10.6901L3.78806 7.37574C3.44803 6.94054 2.81959 6.86337 2.38438 7.20339C1.94918 7.54342 1.87201 8.17186 2.21203 8.60707L5.02215 12.2038C4.97417 12.4936 5.0537 12.8017 5.2655 13.037C5.63505 13.4474 6.26735 13.4805 6.67778 13.111L17.0818 3.74315C17.4922 3.3736 17.5254 2.74131 17.1558 2.33088Z"/>
</mask>
<path fill-rule="evenodd" clip-rule="evenodd" d="M17.1558 2.33088C16.7863 1.92045 16.154 1.88731 15.7435 2.25686L6.3775 10.6901L3.78806 7.37574C3.44803 6.94054 2.81959 6.86337 2.38438 7.20339C1.94918 7.54342 1.87201 8.17186 2.21203 8.60707L5.02215 12.2038C4.97417 12.4936 5.0537 12.8017 5.2655 13.037C5.63505 13.4474 6.26735 13.4805 6.67778 13.111L17.0818 3.74315C17.4922 3.3736 17.5254 2.74131 17.1558 2.33088Z" fill="#82C141"/>
<path d="M15.7435 2.25686L14.4053 0.770573L14.4053 0.770574L15.7435 2.25686ZM17.1558 2.33088L15.6695 3.66914V3.66914L17.1558 2.33088ZM6.3775 10.6901L4.80148 11.9214L6.12191 13.6115L7.71576 12.1764L6.3775 10.6901ZM3.78806 7.37574L2.21203 8.60707H2.21203L3.78806 7.37574ZM2.38438 7.20339L1.15306 5.62737L1.15306 5.62737L2.38438 7.20339ZM2.21203 8.60707L0.636012 9.83839L2.21203 8.60707ZM5.02215 12.2038L6.99528 12.5305L7.1387 11.6644L6.59817 10.9725L5.02215 12.2038ZM5.2655 13.037L3.77921 14.3752L3.77921 14.3752L5.2655 13.037ZM6.67778 13.111L5.33952 11.6247H5.33952L6.67778 13.111ZM17.0818 3.74315L18.4201 5.22944L18.4201 5.22944L17.0818 3.74315ZM17.0818 3.74315C16.6714 4.1127 16.0391 4.07957 15.6695 3.66914L18.6421 0.992617C17.5335 -0.238666 15.6366 -0.338077 14.4053 0.770573L17.0818 3.74315ZM7.71576 12.1764L17.0818 3.74315L14.4053 0.770574L5.03924 9.2038L7.71576 12.1764ZM2.21203 8.60707L4.80148 11.9214L7.95353 9.45876L5.36408 6.14442L2.21203 8.60707ZM3.61571 8.77942C3.1805 9.11944 2.55205 9.04227 2.21203 8.60707L5.36408 6.14442C4.34402 4.8388 2.45868 4.60731 1.15306 5.62737L3.61571 8.77942ZM3.78806 7.37574C4.12808 7.81095 4.05091 8.4394 3.61571 8.77942L1.15306 5.62737C-0.152559 6.64743 -0.384049 8.53277 0.636012 9.83839L3.78806 7.37574ZM6.59817 10.9725L3.78806 7.37574L0.636012 9.83839L3.44613 13.4352L6.59817 10.9725ZM6.7518 11.6987C6.96422 11.9346 7.0424 12.246 6.99528 12.5305L3.04901 11.8772C2.90594 12.7412 3.14317 13.6688 3.77921 14.3752L6.7518 11.6987ZM5.33952 11.6247C5.74994 11.2551 6.38224 11.2883 6.75179 11.6987L3.77921 14.3752C4.88787 15.6065 6.78476 15.7059 8.01604 14.5973L5.33952 11.6247ZM15.7435 2.25686L5.33952 11.6247L8.01604 14.5973L18.4201 5.22944L15.7435 2.25686ZM15.6695 3.66914C15.3 3.25871 15.3331 2.62642 15.7435 2.25686L18.4201 5.22944C19.6514 4.12079 19.7508 2.2239 18.6421 0.992616L15.6695 3.66914Z" fill="white" mask="url(#path-1-outside-1_221_196)"/>
</svg>
