<svg width="34" height="34" viewBox="0 0 34 34" fill="none" xmlns="http://www.w3.org/2000/svg">
<path d="M12.4074 15.5025C13.2055 15.5025 13.8524 14.8675 13.8524 14.0841C13.8524 13.3008 13.2055 12.6657 12.4074 12.6657C11.6094 12.6657 10.9624 13.3008 10.9624 14.0841C10.9624 14.8675 11.6094 15.5025 12.4074 15.5025Z" fill="#00A5F4"/>
<path d="M21.5876 21.2596C22.3856 21.2596 23.0326 20.6246 23.0326 19.8412C23.0326 19.0578 22.3856 18.4228 21.5876 18.4228C20.7895 18.4228 20.1426 19.0578 20.1426 19.8412C20.1426 20.6246 20.7895 21.2596 21.5876 21.2596Z" fill="#00A5F4"/>
<path fill-rule="evenodd" clip-rule="evenodd" d="M32.9772 18.1377L33.5014 18.84C34.3018 19.9177 33.9618 21.4334 32.7789 22.0731L32.0068 22.4972C31.1639 22.9561 30.7105 23.8948 30.8876 24.8265L31.0505 25.6817C31.2984 26.9889 30.3209 28.2126 28.968 28.2891L28.0826 28.3377C27.1193 28.3864 26.2976 29.04 26.0426 29.9578L25.8089 30.7991C25.4476 32.0784 24.0309 32.7668 22.7772 32.2592L21.9555 31.9255C21.063 31.5639 20.0359 31.8003 19.3984 32.5165L18.8176 33.17C17.9322 34.1782 16.3526 34.1852 15.4459 33.1979L14.858 32.5512C14.2134 31.842 13.1793 31.6195 12.2939 31.995L11.4793 32.3357C10.2326 32.8641 8.80178 32.2036 8.42636 30.9242L8.17844 30.0899C7.90928 29.179 7.07344 28.5394 6.11011 28.4977L5.22469 28.4629C3.87178 28.4073 2.87303 27.1974 3.09969 25.8903L3.24844 25.0351C3.41136 24.0964 2.94386 23.1647 2.09386 22.7197L1.31469 22.3095C0.11761 21.6768 -0.24364 20.168 0.535526 19.0833L1.04553 18.3741C1.60511 17.5954 1.59094 16.5594 1.02428 15.7946L0.50011 15.0923C-0.300307 14.0216 0.039693 12.5058 1.22261 11.8592L1.99469 11.4351C2.83761 10.9762 3.29094 10.0375 3.11386 9.10583L2.95094 8.25062C2.70303 6.94346 3.68053 5.71974 5.03344 5.64326L5.91886 5.59459C6.88219 5.54592 7.70386 4.89234 7.95886 3.97455L8.19261 3.13324C8.55386 1.85389 9.97053 1.16555 11.2243 1.67311L12.0459 2.00686C12.9384 2.36841 13.9655 2.13201 14.603 1.41585L15.1839 0.762276C16.0764 -0.245904 17.6559 -0.252857 18.5555 0.734464L19.1434 1.38109C19.788 2.09029 20.8222 2.31279 21.7076 1.93733L22.5222 1.59663C23.7689 1.06821 25.1997 1.72874 25.5751 3.00808L25.823 3.84244C26.0922 4.75328 26.928 5.39295 27.8914 5.43467L28.7768 5.46943C30.1297 5.52506 31.1284 6.73487 30.9018 8.04203L30.753 8.89724C30.5901 9.83589 31.0576 10.7676 31.9076 11.2126L32.6868 11.6228C33.8839 12.2555 34.2451 13.7643 33.4659 14.849L32.9559 15.5582C32.3964 16.3369 32.4105 17.3729 32.9772 18.1377ZM12.4001 10.6633C10.4734 10.6633 8.91511 12.193 8.91511 14.0842C8.91511 15.9684 10.4734 17.505 12.4001 17.505C14.3268 17.505 15.8851 15.9754 15.8851 14.0842C15.8851 12.193 14.3268 10.6633 12.4001 10.6633ZM13.073 22.9075C12.7755 23.2621 12.2372 23.3107 11.8759 23.0187C11.5147 22.7267 11.4651 22.1983 11.7626 21.8437L20.9072 11.0318C21.2047 10.6772 21.743 10.6285 22.1043 10.9206C22.4655 11.2126 22.5151 11.741 22.2176 12.0956L13.073 22.9075ZM18.1022 19.8412C18.1022 21.7324 19.6605 23.2621 21.5872 23.2621C23.5139 23.2621 25.0722 21.7324 25.0722 19.8412C25.0722 17.95 23.5139 16.4204 21.5872 16.4204C19.6605 16.4204 18.1022 17.95 18.1022 19.8412Z" fill="#00A5F4"/>
</svg>
