<?xml version="1.0" encoding="UTF-8"?>
<svg xmlns="http://www.w3.org/2000/svg" xmlns:xlink="http://www.w3.org/1999/xlink" width="25px" height="25px" viewBox="0 0 25 25" version="1.1">
<g id="surface1">
<path style=" stroke:none;fill-rule:nonzero;fill:rgb(0%,0%,0%);fill-opacity:1;" d="M 0.191406 2.679688 C 0.511719 1.996094 1.195312 1.5625 1.953125 1.5625 L 23.046875 1.5625 C 23.804688 1.5625 24.488281 1.996094 24.808594 2.679688 C 25.132812 3.363281 25.035156 4.171875 24.554688 4.757812 L 15.625 15.667969 L 15.625 21.875 C 15.625 22.464844 15.292969 23.007812 14.761719 23.273438 C 14.230469 23.535156 13.597656 23.480469 13.125 23.125 L 10 20.78125 C 9.605469 20.488281 9.375 20.023438 9.375 19.53125 L 9.375 15.667969 L 0.4375 4.75 C -0.0351562 4.171875 -0.136719 3.359375 0.191406 2.679688 Z M 0.191406 2.679688 "/>
</g>
</svg>
