<svg width="19" height="17" viewBox="0 0 19 17" fill="none" xmlns="http://www.w3.org/2000/svg">
<path fill-rule="evenodd" clip-rule="evenodd" d="M13.7388 0.0327674C15.1437 0.0327674 16.46 0.58445 17.4543 1.59383C18.4485 2.6032 18.992 3.94358 18.9879 5.36979C18.9879 6.79599 18.4405 8.13637 17.4462 9.14575L9.87036 16.808C9.7657 16.9143 9.62481 16.9674 9.48795 16.9674C9.35108 16.9674 9.21019 16.9102 9.10553 16.8039L1.54578 9.1294C0.551505 8.12003 2.20421e-05 6.78373 2.20421e-05 5.35753C-0.00400338 3.93133 0.543454 2.59094 1.53773 1.58157C2.52799 0.576277 3.84833 0.0205078 5.24917 0.0205078C6.65405 0.0205078 7.97841 0.580364 8.97269 1.58974L9.50002 2.12508L10.0193 1.59791C11.0136 0.588537 12.3339 0.0327674 13.7388 0.0327674ZM9.48795 15.6393L16.6814 8.36522C17.4704 7.56426 17.9051 6.50176 17.9011 5.36979C17.9011 4.23782 17.4704 3.17532 16.6814 2.37435C15.8924 1.57748 14.8458 1.13613 13.7348 1.13613C12.6238 1.13613 11.5731 1.57748 10.7841 2.37844L9.88244 3.29383C9.66909 3.51041 9.32693 3.51041 9.11358 3.29383L8.20384 2.37027C7.41485 1.56931 6.36422 1.12796 5.24917 1.12796C4.13816 1.12796 3.09155 1.56931 2.30659 2.36618C1.51761 3.16306 1.08689 4.22556 1.08689 5.35753C1.08689 6.4895 1.52163 7.552 2.31062 8.35296L9.48795 15.6393Z" fill="black"/>
</svg>
