<?xml version="1.0" encoding="UTF-8"?>
<svg xmlns="http://www.w3.org/2000/svg" xmlns:xlink="http://www.w3.org/1999/xlink" width="25px" height="25px" viewBox="0 0 25 25" version="1.1">
<g id="surface1">
<path style=" stroke:none;fill-rule:nonzero;fill:rgb(0%,0%,0%);fill-opacity:1;" d="M 10.640625 5.171875 L 16.636719 11.167969 C 16.988281 11.519531 17.1875 12 17.1875 12.5 C 17.1875 13 16.988281 13.480469 16.636719 13.832031 L 10.640625 19.828125 C 10.328125 20.140625 9.90625 20.3125 9.46875 20.3125 C 8.554688 20.3125 7.8125 19.570312 7.8125 18.65625 L 7.8125 15.625 L 1.5625 15.625 C 0.699219 15.625 0 14.925781 0 14.0625 L 0 10.9375 C 0 10.074219 0.699219 9.375 1.5625 9.375 L 7.8125 9.375 L 7.8125 6.34375 C 7.8125 5.429688 8.554688 4.6875 9.46875 4.6875 C 9.90625 4.6875 10.328125 4.863281 10.640625 5.171875 Z M 17.1875 20.3125 L 20.3125 20.3125 C 21.175781 20.3125 21.875 19.613281 21.875 18.75 L 21.875 6.25 C 21.875 5.386719 21.175781 4.6875 20.3125 4.6875 L 17.1875 4.6875 C 16.324219 4.6875 15.625 3.988281 15.625 3.125 C 15.625 2.261719 16.324219 1.5625 17.1875 1.5625 L 20.3125 1.5625 C 22.898438 1.5625 25 3.664062 25 6.25 L 25 18.75 C 25 21.335938 22.898438 23.4375 20.3125 23.4375 L 17.1875 23.4375 C 16.324219 23.4375 15.625 22.738281 15.625 21.875 C 15.625 21.011719 16.324219 20.3125 17.1875 20.3125 Z M 17.1875 20.3125 "/>
</g>
</svg>
