<svg width="18" height="19" viewBox="0 0 18 19" fill="none" xmlns="http://www.w3.org/2000/svg">
<path fill-rule="evenodd" clip-rule="evenodd" d="M14.8301 3.92918H15.2223C16.7531 3.92918 17.9987 5.14951 17.9986 6.64957V12.2661C17.9986 13.7662 16.753 14.9865 15.2223 14.9865H14.8301V18.5224C14.8301 18.7728 14.6229 18.9759 14.3673 18.9759H3.64766C3.39193 18.9759 3.18491 18.7729 3.18491 18.5224V14.9865H2.79244C1.26173 14.9865 0.0161133 13.7662 0.0161133 12.2661V6.64953C0.0161133 5.14951 1.26173 3.92915 2.79244 3.92915H3.18491V0.45343C3.18491 0.203043 3.39193 0 3.64766 0H14.3673C14.6229 0 14.8301 0.203043 14.8301 0.45343V3.92918ZM13.9046 0.906822H4.11038V3.92918H13.9046V0.906822ZM13.9046 18.0692H4.11038V12.4771H13.9046V18.0692ZM15.2223 14.0797C16.243 14.0797 17.0733 13.2662 17.0733 12.2661H17.0732V6.64957C17.0732 5.64958 16.2429 4.83601 15.2223 4.83601H14.3672H3.64762H2.79244C1.77185 4.83601 0.941544 5.64954 0.941544 6.64957V12.2661C0.941544 13.2662 1.77185 14.0797 2.79244 14.0797H3.18491V12.4771H2.32119C2.06565 12.4771 1.85843 12.2742 1.85843 12.0237C1.85843 11.7733 2.06565 11.5703 2.32119 11.5703H3.64766H14.3674H15.8309C16.0866 11.5703 16.2936 11.7733 16.2936 12.0237C16.2936 12.2741 16.0866 12.4771 15.8309 12.4771H14.8301V14.0797H15.2223Z" fill="black"/>
<path d="M14.3673 6.64404C14.0188 6.64404 13.7358 6.92122 13.7358 7.26283C13.7358 7.60444 14.0187 7.88161 14.3673 7.88161C14.716 7.88161 14.9989 7.60448 14.9989 7.26283C14.9989 6.92122 14.716 6.64404 14.3673 6.64404Z" fill="black"/>
<path d="M5.19029 14.045H12.8252C13.0808 14.045 13.288 13.842 13.288 13.5916C13.288 13.3412 13.0808 13.1382 12.8252 13.1382H5.19029C4.93476 13.1382 4.72754 13.3412 4.72754 13.5916C4.72754 13.842 4.93476 14.045 5.19029 14.045Z" fill="black"/>
<path d="M5.19029 15.7266H12.8252C13.0808 15.7266 13.288 15.5235 13.288 15.2732C13.288 15.0228 13.0808 14.8198 12.8252 14.8198H5.19029C4.93476 14.8198 4.72754 15.0228 4.72754 15.2732C4.72754 15.5236 4.93476 15.7266 5.19029 15.7266Z" fill="black"/>
</svg>
