<svg width="16" height="17" viewBox="0 0 16 17" fill="none" xmlns="http://www.w3.org/2000/svg">
<path fill-rule="evenodd" clip-rule="evenodd" d="M10.5586 12.1076C11.1154 11.3875 11.9859 10.9215 12.9621 10.9215C14.6361 10.9215 16 12.2841 16 13.9608C16 15.6375 14.6396 17 12.9656 17C11.2916 17 9.93128 15.6339 9.93128 13.9608C9.93128 13.6078 9.99471 13.2654 10.1075 12.9477L5.44846 10.3391C4.89163 11.0662 4.01762 11.5357 3.03789 11.5357C1.36388 11.5357 0 10.1732 0 8.49647C0 6.81977 1.36388 5.45723 3.03436 5.45723C4.0141 5.45723 4.88811 5.92317 5.44141 6.65033L10.0969 4.04527C9.98414 3.7311 9.92423 3.39223 9.92423 3.03924C9.92423 1.36254 11.2846 0 12.9586 0C14.6326 0 15.993 1.36254 15.993 3.03924C15.993 4.71595 14.6291 6.07849 12.9586 6.07849C11.9789 6.07849 11.1048 5.60901 10.5515 4.88538L5.89251 7.49045C6.00529 7.80814 6.0652 8.14348 6.0652 8.49647C6.0652 8.84593 6.00529 9.1848 5.89604 9.49896L10.5586 12.1076ZM15.0449 3.04277C15.0449 1.89203 14.111 0.956603 12.9621 0.956603C11.8167 0.956603 10.8793 1.89203 10.8793 3.04277C10.8793 4.19352 11.8132 5.12895 12.9621 5.12895C14.111 5.12895 15.0449 4.19352 15.0449 3.04277ZM3.03789 10.5826C1.88899 10.5826 0.955066 9.64722 0.955066 8.49647C0.955066 7.34572 1.88899 6.4103 3.03789 6.4103C4.18678 6.4103 5.12071 7.34572 5.12071 8.49647C5.12071 9.64722 4.18326 10.5826 3.03789 10.5826ZM10.8793 13.9572C10.8793 15.108 11.8132 16.0434 12.9621 16.0434C14.111 16.0434 15.0449 15.108 15.0449 13.9572C15.0449 12.8065 14.111 11.8711 12.9621 11.8711C11.8132 11.8711 10.8793 12.8065 10.8793 13.9572Z" fill="black"/>
</svg>
