<svg width="14" height="15" viewBox="0 0 14 15" fill="none" xmlns="http://www.w3.org/2000/svg">
<path fill-rule="evenodd" clip-rule="evenodd" d="M12.466 12.896H11.8759C11.7073 10.4947 10.5269 8.45223 8.86886 7.5414C10.555 6.63057 11.7916 4.56051 11.9602 2.10404H12.4098C12.719 2.10404 13 1.85563 13 1.55203C13 1.24843 12.747 1 12.4379 1H1.56205C1.25293 1 1 1.24841 1 1.55201C1 1.85561 1.25293 2.10402 1.56205 2.10402H2.06791C2.20841 4.5329 3.41685 6.57535 5.07492 7.48618C3.38874 8.39701 2.1803 10.4395 2.01168 12.896H1.56205C1.25293 12.896 1 13.1444 1 13.448C1 13.7516 1.25293 14 1.56205 14H12.4098C12.7189 14 13 13.7516 13 13.448C13 13.1444 12.7752 12.896 12.466 12.896ZM3.22015 2.10404H10.8923C10.6955 4.80892 9.06556 6.93417 7.07025 6.93417C5.04684 6.93417 3.38877 4.80892 3.22015 2.10404ZM6.98594 8.09341C4.99064 8.09341 3.36065 10.1911 3.13584 12.896H10.808C10.6112 10.1911 8.98125 8.09341 6.98594 8.09341Z" fill="black"/>
<mask id="path-2-outside-1_0_600" maskUnits="userSpaceOnUse" x="0" y="0" width="14" height="15" fill="black">
<rect fill="white" width="14" height="15"/>
<path fill-rule="evenodd" clip-rule="evenodd" d="M12.466 12.896H11.8759C11.7073 10.4947 10.5269 8.45223 8.86886 7.5414C10.555 6.63057 11.7916 4.56051 11.9602 2.10404H12.4098C12.719 2.10404 13 1.85563 13 1.55203C13 1.24843 12.747 1 12.4379 1H1.56205C1.25293 1 1 1.24841 1 1.55201C1 1.85561 1.25293 2.10402 1.56205 2.10402H2.06791C2.20841 4.5329 3.41685 6.57535 5.07492 7.48618C3.38874 8.39701 2.1803 10.4395 2.01168 12.896H1.56205C1.25293 12.896 1 13.1444 1 13.448C1 13.7516 1.25293 14 1.56205 14H12.4098C12.7189 14 13 13.7516 13 13.448C13 13.1444 12.7752 12.896 12.466 12.896ZM3.22015 2.10404H10.8923C10.6955 4.80892 9.06556 6.93417 7.07025 6.93417C5.04684 6.93417 3.38877 4.80892 3.22015 2.10404ZM6.98594 8.09341C4.99064 8.09341 3.36065 10.1911 3.13584 12.896H10.808C10.6112 10.1911 8.98125 8.09341 6.98594 8.09341Z"/>
</mask>
<path fill-rule="evenodd" clip-rule="evenodd" d="M12.466 12.896H11.8759C11.7073 10.4947 10.5269 8.45223 8.86886 7.5414C10.555 6.63057 11.7916 4.56051 11.9602 2.10404H12.4098C12.719 2.10404 13 1.85563 13 1.55203C13 1.24843 12.747 1 12.4379 1H1.56205C1.25293 1 1 1.24841 1 1.55201C1 1.85561 1.25293 2.10402 1.56205 2.10402H2.06791C2.20841 4.5329 3.41685 6.57535 5.07492 7.48618C3.38874 8.39701 2.1803 10.4395 2.01168 12.896H1.56205C1.25293 12.896 1 13.1444 1 13.448C1 13.7516 1.25293 14 1.56205 14H12.4098C12.7189 14 13 13.7516 13 13.448C13 13.1444 12.7752 12.896 12.466 12.896ZM3.22015 2.10404H10.8923C10.6955 4.80892 9.06556 6.93417 7.07025 6.93417C5.04684 6.93417 3.38877 4.80892 3.22015 2.10404ZM6.98594 8.09341C4.99064 8.09341 3.36065 10.1911 3.13584 12.896H10.808C10.6112 10.1911 8.98125 8.09341 6.98594 8.09341Z" fill="black"/>
<path d="M11.8759 12.896L10.8783 12.966L10.9436 13.896H11.8759V12.896ZM8.86886 7.5414L8.39359 6.66156L6.77844 7.53402L8.38739 8.41786L8.86886 7.5414ZM11.9602 2.10404V1.10404H11.0265L10.9625 2.03556L11.9602 2.10404ZM2.06791 2.10402L3.06624 2.04627L3.01173 1.10402H2.06791V2.10402ZM5.07492 7.48618L5.55019 8.36602L7.16534 7.49356L5.55639 6.60972L5.07492 7.48618ZM2.01168 12.896V13.896H2.94539L3.00934 12.9644L2.01168 12.896ZM10.8923 2.10404L11.8896 2.17658L11.9676 1.10404H10.8923V2.10404ZM3.22015 2.10404V1.10404H2.15587L2.22208 2.16626L3.22015 2.10404ZM3.13584 12.896L2.13927 12.8131L2.04928 13.896H3.13584V12.896ZM10.808 12.896V13.896H11.8833L11.8053 12.8234L10.808 12.896ZM11.8759 13.896H12.466V11.896H11.8759V13.896ZM8.38739 8.41786C9.67908 9.12743 10.7275 10.8177 10.8783 12.966L12.8734 12.8259C12.687 10.1717 11.3748 7.77703 9.35032 6.66494L8.38739 8.41786ZM10.9625 2.03556C10.8121 4.22773 9.71525 5.94764 8.39359 6.66156L9.34412 8.42124C11.3948 7.31351 12.7711 4.89328 12.9578 2.17252L10.9625 2.03556ZM12.4098 1.10404H11.9602V3.10404H12.4098V1.10404ZM12 1.55203C12 1.38505 12.0775 1.26682 12.1443 1.2055C12.209 1.14608 12.2993 1.10404 12.4098 1.10404V3.10404C13.1898 3.10404 14 2.48601 14 1.55203H12ZM12.4379 2C12.2118 2 12 1.81764 12 1.55203H14C14 0.679226 13.2823 0 12.4379 0V2ZM1.56205 2H12.4379V0H1.56205V2ZM2 1.55201C2 1.81761 1.78814 2 1.56205 2V0C0.717718 0 0 0.679201 0 1.55201H2ZM1.56205 1.10402C1.78814 1.10402 2 1.2864 2 1.55201H0C0 2.42482 0.717718 3.10402 1.56205 3.10402V1.10402ZM2.06791 1.10402H1.56205V3.10402H2.06791V1.10402ZM5.55639 6.60972C4.25981 5.89747 3.19115 4.20556 3.06624 2.04627L1.06958 2.16177C1.22568 4.86024 2.57389 7.25324 4.59345 8.36265L5.55639 6.60972ZM3.00934 12.9644C3.16009 10.7682 4.23152 9.07833 5.55019 8.36602L4.59965 6.60634C2.54596 7.71569 1.20051 10.1108 1.01403 12.8275L3.00934 12.9644ZM1.56205 13.896H2.01168V11.896H1.56205V13.896ZM2 13.448C2 13.7136 1.78814 13.896 1.56205 13.896V11.896C0.717716 11.896 0 12.5752 0 13.448H2ZM1.56205 13C1.7882 13 2 13.1824 2 13.448H0C0 14.3207 0.717655 15 1.56205 15V13ZM12.4098 13H1.56205V15H12.4098V13ZM12 13.448C12 13.281 12.0775 13.1628 12.1443 13.1015C12.2089 13.042 12.2993 13 12.4098 13V15C13.1898 15 14 14.382 14 13.448H12ZM12.466 13.896C12.3408 13.896 12.2135 13.8413 12.1232 13.7461C12.0368 13.655 12 13.5446 12 13.448H14C14 12.6432 13.3772 11.896 12.466 11.896V13.896ZM10.8923 1.10404H3.22015V3.10404H10.8923V1.10404ZM7.07025 7.93417C8.44865 7.93417 9.62219 7.19719 10.4428 6.15035C11.2624 5.10464 11.7788 3.70072 11.8896 2.17658L9.89491 2.0315C9.80903 3.21224 9.41202 4.22338 8.8687 4.91652C8.32627 5.60853 7.68716 5.93417 7.07025 5.93417V7.93417ZM2.22208 2.16626C2.31755 3.69766 2.83593 5.10647 3.6657 6.15427C4.4966 7.20347 5.68418 7.93417 7.07025 7.93417V5.93417C6.43291 5.93417 5.77975 5.60225 5.2336 4.91261C4.68633 4.22155 4.29136 3.2153 4.21821 2.04182L2.22208 2.16626ZM4.1324 12.9788C4.23077 11.7953 4.6342 10.7896 5.18004 10.1023C5.72437 9.41688 6.36429 9.09341 6.98594 9.09341V7.09341C5.61229 7.09341 4.43957 7.81877 3.61387 8.85844C2.78969 9.8962 2.26572 11.2918 2.13927 12.8131L4.1324 12.9788ZM10.808 11.896H3.13584V13.896H10.808V11.896ZM6.98594 9.09341C7.60776 9.09341 8.24688 9.41699 8.78678 10.1003C9.32819 10.7855 9.72476 11.7883 9.8106 12.9685L11.8053 12.8234C11.6944 11.2987 11.1776 9.90023 10.3561 8.8604C9.53296 7.81866 8.35943 7.09341 6.98594 7.09341V9.09341Z" fill="#FBFBFB" mask="url(#path-2-outside-1_0_600)"/>
</svg>
